<?xml version="1.0" encoding="UTF-8"?>
<!DOCTYPE svg PUBLIC "-//W3C//DTD SVG 1.1//EN" "http://www.w3.org/Graphics/SVG/1.1/DTD/svg11.dtd">
<svg xmlns="http://www.w3.org/2000/svg" version="1.1" width="512px" height="512px" style="shape-rendering:geometricPrecision; text-rendering:geometricPrecision; image-rendering:optimizeQuality; fill-rule:evenodd; clip-rule:evenodd" xmlns:xlink="http://www.w3.org/1999/xlink">
<g><path style="opacity:0.985" fill="#000000" d="M 511.5,239.5 C 511.5,254.5 511.5,269.5 511.5,284.5C 501.716,368.403 461.716,433.57 391.5,480C 374.281,489.942 356.281,498.275 337.5,505C 328.157,507.747 321.991,504.58 319,495.5C 318.953,465.132 318.286,434.799 317,404.5C 314.851,393.033 309.684,383.2 301.5,375C 331.883,372.464 359.217,362.131 383.5,344C 401.612,325.943 412.445,304.109 416,278.5C 421.982,249.323 417.982,221.656 404,195.5C 400.715,190.546 397.048,185.88 393,181.5C 395.259,171.519 396.759,161.353 397.5,151C 397.488,137.231 394.488,124.231 388.5,112C 379.536,111.258 370.87,112.592 362.5,116C 347.391,122.721 332.724,130.221 318.5,138.5C 276.5,126.5 234.5,126.5 192.5,138.5C 179.61,130.888 166.276,124.054 152.5,118C 142.973,113.45 132.973,111.45 122.5,112C 120.239,114.772 118.739,117.938 118,121.5C 114.045,133.897 112.711,146.563 114,159.5C 115.37,166.908 116.703,174.241 118,181.5C 98.6745,203.815 90.3412,229.815 93,259.5C 93.8049,286.579 101.805,311.246 117,333.5C 131.721,349.539 149.555,360.706 170.5,367C 183.402,370.314 196.402,372.98 209.5,375C 200.129,384.578 194.462,396.078 192.5,409.5C 157.765,424.646 131.599,415.646 114,382.5C 104.498,371.087 92.4983,364.087 78,361.5C 75.595,362.274 73.095,362.774 70.5,363C 69.09,363.368 68.09,364.201 67.5,365.5C 68.8333,367.5 70.1667,369.5 71.5,371.5C 82.4761,377.976 91.3095,386.643 98,397.5C 102.606,406.378 106.939,415.378 111,424.5C 121.765,438.133 135.932,445.3 153.5,446C 166.564,446.868 179.564,446.368 192.5,444.5C 192.667,461.837 192.5,479.17 192,496.5C 188.586,504.785 182.419,507.619 173.5,505C 92.0151,475.515 37.5151,419.682 10,337.5C 5.12507,319.96 1.62507,302.293 -0.5,284.5C -0.5,269.5 -0.5,254.5 -0.5,239.5C 11.1184,144.05 59.4517,74.2163 144.5,30C 209.168,1.12183 275.168,-2.2115 342.5,20C 422.426,51.2608 475.592,107.761 502,189.5C 506.545,206.052 509.712,222.719 511.5,239.5 Z"/></g>
</svg>
